<svg width="39" height="42" viewBox="0 0 39 42" fill="none" xmlns="http://www.w3.org/2000/svg">
<path d="M3.73051 26.5452V28.187C3.73065 28.5357 3.8193 28.8791 3.98893 29.1882C4.15855 29.4974 4.40411 29.7628 4.70471 29.9622L11.5437 23.4545L9.64766 21.6504C9.59693 21.6022 9.53672 21.5639 9.47044 21.5378C9.40419 21.5116 9.33314 21.4982 9.26141 21.4982C9.18968 21.4982 9.11865 21.5116 9.0524 21.5378C8.98612 21.5639 8.92591 21.6022 8.87518 21.6504L3.73051 26.5452Z" fill="url(#paint0_linear_202_434)"/>
<path d="M9.26082 19.5202C9.49009 19.5196 9.71719 19.5622 9.92899 19.6458C10.1408 19.7293 10.3331 19.852 10.4947 20.0066L12.8302 22.2289L17.6253 17.6661C18.1227 17.1937 18.7968 16.9283 19.4996 16.9283C20.2023 16.9283 20.8765 17.1937 21.3738 17.6661L28.0412 24.0104L30.1019 22.0496C30.4295 21.7387 30.873 21.5641 31.3358 21.5641C31.7984 21.5641 32.2421 21.7387 32.5695 22.0496L35.2688 24.6202V13.3609C35.2688 12.9807 35.1636 12.6072 34.9636 12.278C34.7638 11.9487 34.4765 11.6753 34.1305 11.4852L20.6376 4.07257C20.2916 3.88244 19.8989 3.78235 19.4994 3.78235C19.0997 3.78235 18.7072 3.88244 18.3611 4.07257L4.868 11.4852C4.52198 11.6753 4.23462 11.9487 4.03481 12.278C3.835 12.6072 3.72978 12.9807 3.72971 13.3609V24.0947L8.02618 20.0064C8.18792 19.8516 8.38035 19.7289 8.59227 19.6456C8.80421 19.5622 9.03145 19.5194 9.26082 19.5202Z" fill="url(#paint1_linear_202_434)"/>
<path d="M29.3283 25.2365L34.2936 29.9621C34.5943 29.7627 34.8398 29.4971 35.0094 29.188C35.179 28.879 35.2675 28.5356 35.2677 28.1869V27.0702L31.7203 23.6947C31.6179 23.5973 31.4789 23.5425 31.3341 23.5425C31.1891 23.5425 31.0501 23.5973 30.9477 23.6947L29.3283 25.2365Z" fill="url(#paint2_linear_202_434)"/>
<path d="M28.0407 26.4611L26.7534 25.2364L20.086 18.8923C19.9304 18.7444 19.7196 18.6614 19.4997 18.6614C19.2798 18.6614 19.0689 18.7444 18.9134 18.8923L14.1182 23.455L12.8308 24.6801L6.33014 30.8649L18.3607 37.4746C18.7068 37.6647 19.0994 37.7648 19.499 37.7648C19.8986 37.7648 20.2913 37.6647 20.6373 37.4746L32.6678 30.8649L28.0407 26.4611Z" fill="url(#paint3_linear_202_434)"/>
<path d="M19.4997 1.79126C19.946 1.79115 20.3846 1.9029 20.7711 2.11527L35.8454 10.3967C36.232 10.6091 36.5529 10.9145 36.776 11.2823C36.9992 11.6502 37.1167 12.0674 37.1167 12.4921V29.055C37.1167 29.4796 36.9992 29.8968 36.776 30.2647C36.5529 30.6324 36.232 30.9379 35.8454 31.1503L20.7711 39.4317C20.3844 39.644 19.946 39.7559 19.4996 39.7559C19.0532 39.7559 18.6147 39.644 18.2282 39.4317L3.15385 31.1503C2.7673 30.9379 2.4463 30.6324 2.22314 30.2647C1.99998 29.8968 1.88249 29.4796 1.8825 29.055V12.4921C1.88249 12.0674 1.99998 11.6502 2.22314 11.2823C2.44632 10.9145 2.7673 10.6091 3.15385 10.3967L18.2282 2.11527C18.6148 1.90292 19.0533 1.79117 19.4997 1.79126ZM19.4997 0C18.723 0.000288643 17.9599 0.194841 17.2871 0.564158L2.2126 8.84557C1.54072 9.21604 0.982767 9.74778 0.594496 10.3877C0.206227 11.0276 0.00123368 11.7533 0 12.4921V29.055C0.00127337 29.7939 0.206307 30.5196 0.59461 31.1594C0.982914 31.7994 1.54089 32.3311 2.2128 32.7016L17.2871 40.983C17.9599 41.3525 18.7229 41.5469 19.4997 41.5469C20.2765 41.5469 21.0395 41.3525 21.7123 40.983L36.7866 32.7016C37.4586 32.3312 38.0168 31.7994 38.4051 31.1596C38.7935 30.5196 38.9986 29.7939 39 29.055V12.4921C38.9988 11.7533 38.7937 11.0276 38.4055 10.3877C38.0171 9.74779 37.4592 9.21604 36.7874 8.84557L21.7131 0.564158C21.0403 0.194865 20.2773 0.000314911 19.5005 0H19.4997Z" fill="url(#paint4_linear_202_434)"/>
<defs>
<linearGradient id="paint0_linear_202_434" x1="7.63709" y1="4.04515" x2="7.63709" y2="37.9015" gradientUnits="userSpaceOnUse">
<stop offset="0.004" stop-color="#4C99D4"/>
<stop offset="0.5" stop-color="#56C3E6"/>
<stop offset="1" stop-color="#B0D8BC"/>
</linearGradient>
<linearGradient id="paint1_linear_202_434" x1="19.4993" y1="4.05324" x2="19.4993" y2="37.9148" gradientUnits="userSpaceOnUse">
<stop offset="0.004" stop-color="#4C99D4"/>
<stop offset="0.5" stop-color="#56C3E6"/>
<stop offset="1" stop-color="#B0D8BC"/>
</linearGradient>
<linearGradient id="paint2_linear_202_434" x1="32.2981" y1="4.04608" x2="32.2981" y2="37.9033" gradientUnits="userSpaceOnUse">
<stop offset="0.004" stop-color="#4C99D4"/>
<stop offset="0.5" stop-color="#56C3E6"/>
<stop offset="1" stop-color="#B0D8BC"/>
</linearGradient>
<linearGradient id="paint3_linear_202_434" x1="19.499" y1="4.04736" x2="19.499" y2="37.8985" gradientUnits="userSpaceOnUse">
<stop offset="0.004" stop-color="#4C99D4"/>
<stop offset="0.5" stop-color="#56C3E6"/>
<stop offset="1" stop-color="#B0D8BC"/>
</linearGradient>
<linearGradient id="paint4_linear_202_434" x1="19.5" y1="41.5469" x2="19.5" y2="0" gradientUnits="userSpaceOnUse">
<stop stop-color="#B0D8BC"/>
<stop offset="0.5" stop-color="#56C3E6"/>
<stop offset="0.996" stop-color="#4C99D4"/>
</linearGradient>
</defs>
</svg>
